<svg width="106" height="33" viewBox="0 0 106 33" fill="none" xmlns="http://www.w3.org/2000/svg">
<g clip-path="url(#clip0_2_75)">
<path fill-rule="evenodd" clip-rule="evenodd" d="M69.3446 32.1194H62.9338V4.13743C62.9338 1.86739 64.7703 0.0308228 67.0404 0.0308228H69.3446V32.1194ZM0 6.44169L10.7684 32.108H14.8979L18.3543 23.8833L21.8107 32.108H25.94L36.7085 6.44169H31.6094C31.0391 6.44169 29.6018 6.64703 28.8261 8.40374L23.9324 20.5638C23.9324 20.5638 23.6472 19.868 23.1795 18.8071C22.381 16.8793 20.476 15.6131 18.3885 15.6131C16.3009 15.6131 14.3731 16.9021 13.5632 18.8642L12.8673 20.5638C12.8673 20.5638 7.89381 8.65472 7.76833 8.34671C7.30064 7.16035 6.27399 6.44169 5.08763 6.44169H0ZM98.1133 31.1155C96.5969 31.8 94.8627 32.108 93.1284 32.108C91.3951 32.108 89.6608 31.7885 88.0868 31.1155C86.5695 30.4881 85.2007 29.5414 84.0485 28.3892C82.8964 27.2371 81.9496 25.8682 81.3222 24.2941C80.6377 22.7768 80.3297 21.0429 80.3297 19.3091C80.3297 17.5752 80.6492 15.8413 81.3222 14.267C81.9496 12.7499 82.8964 11.381 84.0485 10.1719C85.2007 9.01973 86.5695 8.12996 88.0868 7.44553C89.6608 6.7611 91.3374 6.4531 93.1284 6.4531C94.9195 6.4531 96.5392 6.7725 98.1133 7.44553C99.6882 8.12996 101.056 9.01973 102.209 10.1719C103.361 11.381 104.308 12.7385 104.993 14.267C105.619 15.8413 105.984 17.5182 105.984 19.3091C105.984 21.1 105.619 22.7198 104.993 24.2941C104.308 25.8682 103.361 27.2371 102.209 28.3892C101.056 29.5414 99.6882 30.4881 98.1133 31.1155ZM95.9123 12.6929C95.022 12.3279 94.1325 12.1681 93.1861 12.1681C92.2389 12.1681 91.2461 12.3279 90.4022 12.6929C89.5584 13.1149 88.7713 13.5826 88.1436 14.267C87.5167 14.8944 86.9915 15.6815 86.6264 16.5257C86.2044 17.4154 86.0448 18.3052 86.0448 19.3091C86.0448 20.3129 86.2044 21.2027 86.5695 22.0354C86.9915 22.8796 87.5167 23.6666 88.1436 24.2941C88.7713 24.9785 89.5584 25.5032 90.4022 25.8682C91.2461 26.2332 92.1933 26.393 93.1861 26.393C94.1781 26.393 95.0797 26.2332 95.9123 25.8682C96.7562 25.4461 97.5432 24.9785 98.171 24.2941C98.7978 23.6666 99.3231 22.8796 99.745 22.0354C100.11 21.1912 100.269 20.2559 100.269 19.3091C100.269 18.3623 100.11 17.4154 99.745 16.5257C99.3231 15.6815 98.7978 14.8944 98.171 14.267C97.5432 13.5826 96.7562 13.1149 95.9123 12.6929ZM47.7963 32.1308C49.5302 32.1308 51.2528 31.8 52.7699 31.127C54.3441 30.4996 55.7129 29.5527 56.8651 28.4006C57.3556 27.9101 57.8119 27.374 58.234 26.8036C57.3556 25.8569 55.3821 24.1001 53.5342 24.6134C53.3175 24.6704 52.8041 24.8074 51.9143 25.275C51.9143 25.275 51.1957 25.6971 50.8193 25.891C49.9752 26.2561 49.0398 26.4158 48.0929 26.4158C47.1461 26.4158 46.1537 26.2561 45.3095 25.891C44.4654 25.526 43.6783 25.0013 43.0509 24.3169C42.4235 23.6894 41.8988 22.9024 41.4767 22.0582C41.4425 21.967 41.4083 21.8871 41.3741 21.7959H57.9259C59.3747 21.7959 60.6523 20.7692 60.6523 19.3319C60.6523 17.8945 60.2873 15.8641 59.6598 14.2899C58.9754 12.7727 58.0287 11.4038 56.8765 10.1947C55.7244 9.04255 54.3555 8.15278 52.7813 7.46834C51.2071 6.78391 49.5302 6.47591 47.7963 6.47591C46.0625 6.47591 44.3286 6.79532 42.7543 7.46834C41.2372 8.15278 39.8683 9.04255 38.7162 10.1947C37.564 11.4038 36.6173 12.7613 35.9899 14.2899C35.3054 15.8641 34.9974 17.541 34.9974 19.3319C34.9974 21.1228 35.3169 22.7996 35.9899 24.3169C36.6173 25.891 37.564 27.2599 38.7162 28.412C39.8683 29.5642 41.2372 30.511 42.7543 31.1383C44.3286 31.8228 46.0054 32.1308 47.7963 32.1308ZM50.5683 12.6929C49.6785 12.3279 48.7888 12.1681 47.842 12.1681C46.8951 12.1681 45.9027 12.3279 45.0586 12.6929C44.2145 13.1149 43.4274 13.5826 42.8 14.267C42.2182 14.8488 41.7277 15.5561 41.3741 16.3204H54.2984C53.8992 15.5561 53.4087 14.8488 52.8269 14.267C52.1995 13.5826 51.4124 13.1149 50.5683 12.6929ZM71.626 0.0308228H73.9303C76.2004 0.0308228 78.0369 1.86739 78.0369 4.13743V6.44169H75.7327C73.4626 6.44169 71.626 4.60513 71.626 2.33509V0.0308228ZM78.0369 32.1194H71.626V7.67367H73.9303C76.2004 7.67367 78.0369 9.51021 78.0369 11.7803V32.1194Z" fill="#123F4F"/>
</g>
<defs>
<clipPath id="clip0_2_75">
<rect width="106" height="32.2047" fill="white"/>
</clipPath>
</defs>
</svg>
